# xmcd CD database file
#
# Track frame offsets:
#	150
#	15085
#	40015
#	59453
#	73948
#	93120
#	110610
#	120728
#	143698
#	155005
#	169238
#	187108
#	199675
#	212463
#
# Disc length: 3035 seconds
#
# Revision: 2
# Processed by: cddbd v1.4PL0 Copyright (c) Steve Scherf et al.
# Submitted via: CDex 1.50
#
DISCID=bf0bd90e
DTITLE=Count Basie - Gold
DYEAR=1900
DGENRE=Jazz
TTITLE0=Jumping at the Woodside
TTITLE1=One O'Clock Jump
TTITLE2=Blue and Sentimental
TTITLE3=Stormy Monday Blues
TTITLE4=Going to Chicago
TTITLE5=Lester Leaps In
TTITLE6=Basie Boogie
TTITLE7=Every Day I Have the Blues
TTITLE8=Red Bank Boogie
TTITLE9=Shorty - George
TTITLE10=Basie Talk
TTITLE11=Swinging the Blues
TTITLE12=Basie Goes West
TTITLE13=The King
EXTD=
EXTT0=
EXTT1=
EXTT2=
EXTT3=
EXTT4=
EXTT5=
EXTT6=
EXTT7=
EXTT8=
EXTT9=
EXTT10=
EXTT11=
EXTT12=
EXTT13=
PLAYORDER=
